<svg xmlns="http://www.w3.org/2000/svg" viewBox="0 0 16 16" width="32" height="32" shape-rendering="crispEdges">
  <!-- Outer Outline -->
  <rect x="5" y="1" width="6" height="1" fill="#451a03" />
  <rect x="3" y="2" width="2" height="1" fill="#451a03" />
  <rect x="11" y="2" width="2" height="1" fill="#451a03" />
  <rect x="2" y="3" width="1" height="1" fill="#451a03" />
  <rect x="13" y="3" width="1" height="1" fill="#451a03" />
  <rect x="1" y="4" width="1" height="2" fill="#451a03" />
  <rect x="14" y="4" width="1" height="2" fill="#451a03" />
  <rect x="0" y="6" width="1" height="4" fill="#451a03" />
  <rect x="15" y="6" width="1" height="4" fill="#451a03" />
  <rect x="1" y="10" width="1" height="2" fill="#451a03" />
  <rect x="14" y="10" width="1" height="2" fill="#451a03" />
  <rect x="2" y="12" width="1" height="1" fill="#451a03" />
  <rect x="13" y="12" width="1" height="1" fill="#451a03" />
  <rect x="3" y="13" width="2" height="1" fill="#451a03" />
  <rect x="11" y="13" width="2" height="1" fill="#451a03" />
  <rect x="5" y="14" width="6" height="1" fill="#451a03" />

  <!-- Base Cheese Ball Orange -->
  <rect x="5" y="2" width="6" height="1" fill="#f97316" />
  <rect x="3" y="3" width="10" height="1" fill="#f97316" />
  <rect x="2" y="4" width="12" height="1" fill="#f97316" />
  <rect x="2" y="5" width="12" height="1" fill="#f97316" />
  <rect x="1" y="6" width="14" height="1" fill="#f97316" />
  <rect x="1" y="7" width="14" height="1" fill="#f97316" />
  <rect x="1" y="8" width="14" height="1" fill="#f97316" />
  <rect x="1" y="9" width="14" height="1" fill="#f97316" />
  <rect x="2" y="10" width="12" height="1" fill="#f97316" />
  <rect x="2" y="11" width="12" height="1" fill="#f97316" />
  <rect x="3" y="12" width="10" height="1" fill="#f97316" />
  <rect x="5" y="13" width="6" height="1" fill="#f97316" />

  <!-- Yellow Cheese Dust Highlight -->
  <rect x="5" y="2" width="4" height="1" fill="#fde047" />
  <rect x="4" y="3" width="5" height="1" fill="#fde047" />
  <rect x="3" y="4" width="4" height="1" fill="#fde047" />
  <rect x="5" y="4" width="2" height="1" fill="#fef08a" />
  <rect x="2" y="5" width="4" height="1" fill="#fde047" />
  <rect x="4" y="5" width="2" height="1" fill="#fef08a" />
  <rect x="2" y="6" width="3" height="1" fill="#fde047" />
  <rect x="1" y="7" width="3" height="1" fill="#fde047" />
  <rect x="1" y="8" width="2" height="1" fill="#fde047" />

  <!-- Deep Cheddar Shading -->
  <rect x="10" y="3" width="2" height="1" fill="#c2410c" />
  <rect x="11" y="4" width="2" height="1" fill="#c2410c" />
  <rect x="11" y="5" width="2" height="1" fill="#c2410c" />
  <rect x="12" y="6" width="2" height="1" fill="#c2410c" />
  <rect x="11" y="7" width="3" height="1" fill="#c2410c" />
  <rect x="10" y="8" width="4" height="1" fill="#c2410c" />
  <rect x="9" y="9" width="5" height="1" fill="#c2410c" />
  <rect x="8" y="10" width="5" height="1" fill="#c2410c" />
  <rect x="7" y="11" width="6" height="1" fill="#c2410c" />
  <rect x="6" y="12" width="6" height="1" fill="#c2410c" />
  <rect x="6" y="13" width="5" height="1" fill="#c2410c" />

  <!-- Little Cheese Dust Flecks -->
  <rect x="13" y="1" width="1" height="1" fill="#f97316" />
  <rect x="1" y="13" width="1" height="1" fill="#fb923c" />
  <rect x="14" y="11" width="1" height="1" fill="#c2410c" />
</svg>
